<svg version="1" xmlns="http://www.w3.org/2000/svg" width="1536" height="1536" viewBox="0 0 1152.000000 1152.000000"><path d="M650 305.8c-1.9 1.5-4.2 3.4-5.1 4.2-.8.8-3.5 3.2-6 5.2-8.4 7.1-9.4 8-11.9 10.1-2.1 1.9-7.7 6.6-29.9 25.2-1.3 1.1-3.1 2.7-4 3.6-.9.8-5.2 4.4-9.6 8-4.3 3.5-8.6 7.1-9.5 7.9-2.9 2.7-10 8.8-13.7 11.7-2 1.5-4.1 3.3-4.7 3.8-.6.6-4 3.5-7.6 6.5-3.5 3-7.6 6.5-9 7.8-1.4 1.3-3.2 2.7-4.1 3.2-1.2.7-14.3-7.6-54.7-34.5-29.3-19.5-53.7-35.5-54.3-35.5-1 0-12.4 8.7-16.5 12.5-.6.6-3.4 2.8-6.2 5-2.9 2.1-5.2 4.3-5.2 4.7 0 .4-.4.8-1 .8-.5 0-2 .9-3.2 1.9-4.5 3.8-6.7 5.6-9.4 7.6-1.5 1.1-3.2 2.5-3.9 3.1-.6.6-11.9 9.8-25 20.4-13.2 10.6-25.8 20.7-28 22.6-2.2 1.9-4.4 3.7-5 4.2-10.6 8.2-27.3 21.8-28.1 22.8-.6.8-1.6 1.4-2.2 1.4-.6 0-1.2.4-1.4.8-.1.4-4.8 4.3-10.3 8.7-5.5 4.4-10.2 8.2-10.5 8.5-.3.3-5.4 4.5-11.5 9.3-6 4.8-11.7 9.3-12.5 10.1-.8.7-7.3 6-14.5 11.7-7.1 5.7-13.2 10.6-13.5 10.9-.3.3-9.5 7.8-20.5 16.5-11 8.8-20.2 16.2-20.5 16.5-.3.3-2.7 2.4-5.5 4.5-2.7 2.2-5.2 4.2-5.5 4.5-1.4 1.5-40.8 32.8-42.5 33.8-1.1.6-1.6 1.2-1.1 1.2.6 0-1 1.5-3.5 3.2-6.4 4.7-16.3 12.9-16.7 13.9-.2.5-.8.9-1.3.9-.8 0-3.4 2-7.3 5.5-.6.6-3.1 2.6-5.6 4.5-2.5 1.9-4.7 3.7-5 4-.3.3-5 4.1-10.5 8.5s-10.9 8.7-12 9.6c-1.1 1-4 3.4-6.5 5.4-5.4 4.3-11.6 9.5-14 11.5-1.4 1.2-1.7 3.3-1.7 10.8 0 5.1.4 9.5.8 9.8.7.4 13.2-8.8 15.9-11.6.3-.3 2.5-2.1 5-4s5-3.9 5.6-4.5c.6-.5 2.6-2.1 4.4-3.5 1.8-1.4 4.1-3.2 5.1-4 .9-.8 3.2-2.6 4.9-4 1.8-1.4 3.7-3 4.4-3.5.6-.6 21.4-17.2 46.1-37 24.8-19.8 45.2-36.2 45.5-36.5.3-.3 2.1-1.7 4-3.1 1.9-1.5 4.5-3.5 5.7-4.5 1.2-1.1 3-2.6 4-3.4 1-.8 3.2-2.6 4.9-4 1.7-1.4 4.5-3.6 6.4-5 1.8-1.4 3.8-3 4.4-3.5.6-.6 5.6-4.6 11.1-9s10.9-8.7 12-9.6c1.1-.9 8.3-6.7 16-12.8 7.7-6.2 14.8-11.9 15.8-12.7 1-.8 19.6-15.7 41.5-33.2 21.8-17.4 40.6-32.4 41.7-33.4 3-2.5 10.8-8.8 12.5-10.1 4.9-3.8 11.8-9.5 14-11.4 1.4-1.3 2.8-2.3 3.2-2.3.3 0 1.3-.7 2.1-1.5s4.4-3.7 7.9-6.5c3.4-2.8 7-5.6 7.8-6.3.8-.7 3.7-3 6.5-5.2 2.7-2.2 5.5-4.5 6.1-5 .6-.6 4.6-3.7 8.9-7 4.2-3.3 8.9-7 10.2-8.3 1.4-1.3 3-2.1 3.7-1.9.6.3 21.1 13.7 45.6 29.9s53.3 35.2 64 42.3c10.7 7 19.7 13.1 20 13.4.3.4 1.8 1.2 3.4 1.9 2.9 1.3 3.1 1.2 8.8-4.7 3.2-3.2 5.8-6.4 5.8-7 0-.6-5.4-4.7-12-9.1-6.6-4.4-12-8.2-12-8.3 0-.2 3-2.8 6.8-5.8 3.7-3 7.2-5.8 7.8-6.4.6-.5 2.8-2.4 4.9-4 2-1.7 4.2-3.5 4.9-4 .6-.6 9.9-8.2 20.6-17 10.7-8.8 20.4-16.7 21.5-17.7 1.1-.9 7.9-6.4 15-12.3 7.2-5.9 15-12.3 17.4-14.4 2.4-2 4.8-3.7 5.2-3.9.5-.2 10.5 9.3 22.1 21.1 39.5 39.9 161.5 163 185.8 187.4 13.2 13.4 24.4 24.3 24.8 24.3.4 0 3.4-2.5 6.7-5.5 3.3-3 6.3-5.4 6.7-5.5 2.3-.1-3-6-25.9-28.9-13.9-14-25.3-26-25.2-26.5 0-.6 5-4.9 11-9.6 6-4.7 12-9.4 13.3-10.5 1.4-1.1 10.9-8.7 21.3-17 10.3-8.2 19-15.2 19.3-15.5.3-.3 2.5-2.1 5-4s5.4-4.3 6.5-5.2c1.1-.9 3.1-2.6 4.5-3.7l2.5-2 85.2 85.2c46.9 46.8 85.6 84.7 86 84.3.4-.4.8-5 .9-10.2l.1-9.4-23.1-23.4c-37.3-37.9-135.6-137.3-142.1-143.7-6.3-6.1-7.5-6.7-9.7-4.6-.7.7-4.2 3.5-7.8 6.2-3.6 2.7-7.2 5.5-8 6.2-.8.7-4.4 3.6-8 6.3-3.6 2.7-6.9 5.3-7.5 5.8-.5.4-5.9 4.6-12 9.2-6 4.7-11.7 9-12.5 9.7-1.3 1.1-12.1 9.5-20.9 16.3-1.8 1.4-6.8 5.3-11.2 8.8l-8 6.4-3.3-2.9c-1.9-1.5-4-3.8-4.6-5-.7-1.2-1.6-2-2.1-1.8-.4.3-.9.1-1.1-.5-.6-1.7-167-168-168.2-168-.6 0-2.7 1.3-4.6 2.8z"/><path d="M405.7 641.6c-.1.2-4 .5-8.7.9-4.7.3-9.2.8-10 1-.8.2-3.5.7-6 1-5.5.7-16.7 3.8-23.8 6.5-12.5 4.8-24.6 14.9-29.6 24.8-2.3 4.5-2.9 6.9-4 14.7-.4 3 2.1 12.9 4.4 17.2 2 3.8 11.7 14.3 13.1 14.3.4 0 1.4.6 2.1 1.3 4.8 4.6 32.2 14.5 47.8 17.3 1.4.3 4.1.9 6 1.4 1.9.4 5.8 1.2 8.5 1.6 2.8.4 5.2.8 5.5.9.3 0 2.8.4 5.5.9 9 1.4 24.4 5.6 28.3 7.7 12.8 7.2 13.5 17.3 1.6 24.9-9.9 6.3-31.1 7.1-43.9 1.7-10.8-4.5-18.9-14.7-19.4-24.5-.1-.7-.4-1.1-.8-.9-.5.3-8 .8-16.8 1.1-39 1.6-49.5 2.3-50.2 3-.9.9 3.5 15.1 6 19.6 9.6 17.1 25 28.5 44.7 33 1.9.5 4.5 1.1 5.6 1.3 2.3.6 8.3 1.6 12.4 2.2 18 2.5 59.8 2.5 72 0 1.4-.3 4.1-.8 6-1.1 14.8-2.3 34.6-10.6 42.6-18 .7-.6 2.5-2.1 4-3.5 8.2-7 15.5-22.2 15.5-32.4.1-16.6-10.4-31.2-28.6-40.1-5.2-2.5-10-4.7-10.7-4.8-.7-.2-2.2-.6-3.3-1-4.3-1.6-7.1-2.5-10.5-3.2-4.6-1-5-1.1-5.2-1.4-.4-.2-1.2-.4-13.3-3-5.5-1.1-11.3-2.3-13-2.5-1.6-.3-4.1-.7-5.5-1-1.4-.3-5.2-1-8.5-1.5-8-1.3-11.5-1.9-14.5-2.5-1.4-.3-3.6-.7-5-1-5.2-1-12.1-4-14.2-6.2-4.7-5-.9-12.5 8.1-16 10-3.9 33.2-1.6 39 3.8 1.1 1.1 2.4 1.9 2.8 1.9 1.2 0 4.9 6 6.4 10.2l1.3 3.7 10-.4c28.5-1.1 56.9-2.4 57.2-2.7.1-.2-.8-3.6-2.1-7.5-3.3-10.5-9.5-19.5-17.5-25.5-3.9-2.9-15.2-8.8-18-9.3-1-.2-2.8-.9-3.9-1.5-1.2-.6-2.1-.8-2.1-.6 0 .3-1.2.1-2.6-.5-1.5-.5-4.3-1.2-6.3-1.5-2-.3-4.3-.7-5.1-.9-1.8-.5-6.2-1.1-14.5-2.1-5.4-.6-38.3-1.2-38.8-.8zM926.7 641.5c-.1.2-4.2.6-9.2.9-11.5.9-21 2.4-31.5 5.1-9.6 2.4-22.8 8.4-32 14.3-7.3 4.8-18.7 16.5-22.7 23.3-7.3 12.3-11.1 28.5-10.8 45.9.3 13.5 3.3 28.1 6.7 32.6.4.6.5 1.4.1 1.7-.3.4-.1.7.5.7.7 0 1.2.5 1.2 1 0 3.6 14.7 21.1 23.1 27.5 3.7 2.9 10.8 7.5 11.5 7.5.4 0 1.5.7 2.4 1.5 1 .9 2.6 1.7 3.8 2 1.1.2 3.3 1 4.9 1.7 2.7 1.4 7.7 3 13.8 4.4 1.7.4 3.5.8 4 1 1 .2 8.2 1.4 12.5 2 16.4 2.4 57.2 2.3 68.5-.1 1.1-.3 3.1-.7 4.5-1 8.2-1.5 23.2-6.6 25.6-8.6.6-.5 1.4-.6 1.7-.2.4.3.7.1.7-.5 0-.7.5-1.2 1.1-1.2 3.4 0 19-13 24.6-20.5 5.4-7.1 12.3-20.4 12.3-23.5 0-.5-1.7-1.2-3.7-1.6-2.1-.3-7.4-1.4-11.8-2.5-11.3-2.6-16.6-3.8-19.7-4.3-1.5-.3-3.1-.7-3.5-.9-.5-.3-2.6-.8-4.8-1.1-2.2-.4-6.8-1.3-10.3-2.1-7.9-1.9-9.2-1.9-9.2 0 0 3.8-7.3 15.9-12.5 20.9-11.3 10.7-39.1 13.4-55.7 5.5-7.5-3.5-8.2-4.1-12-8.7-5.8-7.2-8.9-19-9-35.2-.2-17.3 3.7-28.5 12.5-36.6 8.8-8 17.7-11.1 33.2-11.4 11.9-.2 20.8 2 28.5 7.3 6.2 4.3 7.3 5.4 10.9 11.3l3.1 5.1 6.7-1.3c3.8-.7 8.8-1.5 11.3-1.9 2.5-.3 5.6-.8 7-1 1.4-.3 3.6-.8 5-1 1.4-.3 4.1-.7 6-1 1.9-.3 4.4-.7 5.5-.9 1.1-.2 5.6-.9 10-1.6 11.5-1.7 11-1.2 7.8-7.2-1.5-2.9-3.1-5.5-3.5-5.6-.5-.2-.8-.8-.8-1.4 0-1.1-7.1-10-10.6-13.3-8.3-7.9-18.1-14.1-28.3-17.9-7.1-2.7-22.4-6.6-28.1-7.1-1.9-.2-6.2-.7-9.5-1-5.6-.6-31.2-1.4-31.8-1zM93.6 645c-.2.3-.2 38.3-.2 84.5l.1 84 86.3.1 86.2.1.1-2.6c.6-15.4.2-35.1-.6-35.2-.5-.1-25.1-.3-54.5-.3l-53.5-.2-.3-16.7-.2-16.7 11.7.1H218l37.5-.1-.1-17.2v-17.3h-98.5l.3-13.5.3-13.4H263V678c.1-5.3.1-27.6.1-30.5l-.1-3h-84.6c-46.5 0-84.7.2-84.8.5zM634.7 646c-.7.8-4.4 7.8-8.2 15.5-3.9 7.7-7.4 14.3-7.8 14.6-.5.3-.8.9-.8 1.3.1.7-4.1 9.1-14.4 29.1-3.7 7.2-11 21.5-16.3 32-5.3 10.4-10 19.3-10.5 19.6-.5.3-.8.9-.8 1.3.1.7-8.6 18.3-19.8 39.9-4.8 9.3-6.7 13.9-5.9 14.2.7.2 17.1.3 36.3.2l35-.2 5.2-12.9c2.9-7.1 5.6-13.3 6.2-13.9.6-.6 16.3-.9 40.7-.9l39.8-.1 2.9 6.9c1.5 3.8 3.2 7.8 3.6 8.9.5 1.1 1.8 4.2 2.9 7l2.1 5 37 .1c20.4.1 37.1-.1 37.1-.3 0-.2-1.2-2.7-2.7-5.6-1.5-2.9-2.7-5.4-2.8-5.7 0-.3-.5-1.2-1-2s-4.2-7.8-8.1-15.5c-3.9-7.7-13.1-25.7-20.4-40-15.3-29.9-18-35.2-18.1-36.2 0-.5-.6-1.5-1.3-2.3-.7-.8-4.1-7.4-7.7-14.5-3.5-7.2-6.7-13.2-7-13.5-.3-.3-1.1-2.1-1.9-4-.8-1.9-1.6-3.7-1.9-4-.3-.3-3.5-6.1-6.9-13l-6.4-12.5h-38.5c-33.1 0-38.6.2-39.6 1.5zm42.4 51.5c.9 2.2 5.6 13.4 10.4 25 4.8 11.5 9.3 22.2 10 23.7l1.3 2.8h-5.1c-5.6.1-35.8.1-42 0H648l1.6-3.8c.9-2 3.2-7.5 5.1-12.2 4.6-11.3 7.2-17.1 8.3-19.2.6-1 1-2.2 1-2.7s1.4-3.9 3-7.4c1.7-3.6 3-6.7 3-7 0-.2.7-2.2 1.6-4.3l1.7-3.9 1 2.5c.6 1.4 1.8 4.3 2.8 6.5z"/></svg>